<svg data-noselect="" viewBox="0 0 400 300" width="400" height="300" preserveAspectRatio="none" version="1.1" xmlns="http://www.w3.org/2000/svg" style="background: rgba(255, 255, 255, 0);"><defs></defs> <g id="shape_1oyG42gweK" transform="translate(63.5,12) rotate(0,273,273) scale(0.5,0.5)" filter="" style="cursor: move; opacity: 1;"><g><rect fill="rgba(0,0,0,0)" width="566" height="566" x="-10" y="-10"></rect><svg xmlns="http://www.w3.org/2000/svg" xmlns:xlink="http://www.w3.org/1999/xlink" shape-rendering="auto" id="layer1" text-rendering="auto" width="546" contentscripttype="text/ecmascript" color-rendering="auto" color-interpolation="auto" xml:space="preserve" preserveAspectRatio="none" viewBox="0 0 100.115 100.115" image-rendering="auto" zoomAndPan="magnify" version="1.1" contentstyletype="text/css" x="0px" enable-background="new 0 0 100.115 100.115" height="546" y="0px" data-parent="shape_1oyG42gweK">
 <g fill="#00A0E9">
  <path clip-rule="evenodd" d="M89.565,33.685C86.75,28.523,82.949,23.599,78.21,18.86   c-4.738-4.74-9.667-8.493-14.78-11.356C57.941,4.502,52.966,3,48.557,3c-4.458,0-9.43,1.502-14.873,4.504   c-5.162,2.863-10.089,6.616-14.827,11.356c-4.74,4.738-8.493,9.663-11.353,14.778C4.501,39.127,3,44.102,3,48.511   c0,4.457,1.501,9.433,4.504,14.92c2.86,5.117,6.613,10.042,11.353,14.78c4.738,4.737,9.666,8.538,14.781,11.354   c5.489,3.003,10.46,4.504,14.873,4.551c4.455-0.047,9.43-1.548,14.87-4.551c5.162-2.815,10.091-6.616,14.829-11.354   c4.738-4.738,8.54-9.663,11.354-14.78c3-5.487,4.504-10.463,4.55-14.872C94.069,44.102,92.565,39.127,89.565,33.685z    M74.642,58.411L58.411,74.645c-2.72,2.723-6.005,4.082-9.899,4.082c-3.848,0-7.134-1.359-9.901-4.082L22.424,58.411   c-2.722-2.721-4.084-6.006-4.084-9.9c0-3.846,1.362-7.13,4.084-9.853l17.312-17.266l4.6,4.598c1.171,1.174,1.733,2.582,1.733,4.176   c0,1.642-0.562,3.048-1.733,4.224l-4.974,4.972c-2.535,2.534-3.801,5.583-3.801,9.148c0,3.613,1.267,6.663,3.801,9.196   c2.535,2.535,5.583,3.849,9.15,3.849s6.661-1.313,9.193-3.849c2.584-2.533,3.851-5.583,3.851-9.196   c0-3.565-1.267-6.615-3.851-9.148l-1.267-1.266c-0.234-0.236-0.468-0.33-0.796-0.33c-0.282,0-0.516,0.093-0.748,0.33l-4.038,4.082   c-0.233,0.187-0.328,0.469-0.328,0.751c0,0.327,0.095,0.562,0.328,0.796c0.188,0.188,0.47,0.282,0.752,0.282   c0.328,0,0.564-0.094,0.798-0.282l1.126-1.173l0.466,0.516c1.55,1.503,2.302,3.333,2.302,5.443c0,2.159-0.752,3.989-2.302,5.537   c-1.497,1.502-3.329,2.253-5.486,2.253c-2.114,0-3.943-0.751-5.49-2.253c-1.503-1.548-2.255-3.378-2.255-5.537   c0-2.11,0.752-3.94,2.255-5.443l18.016-18.015l13.604,13.605c2.725,2.722,4.085,6.006,4.085,9.853   C78.727,52.405,77.367,55.69,74.642,58.411z" fill-rule="evenodd"></path>
 </g>
 <!--Copyright (c) Logomaker.com.cn  @2015-05-31-->
</svg></g> <!----></g>  <!----></svg>
